<svg data-v-423bf9ae="" xmlns="http://www.w3.org/2000/svg" viewBox="0 0 271.65295002432805 163" class="iconAbove"><!----><!----><!----><g data-v-423bf9ae="" id="a29c45b4-5277-49a4-9e1d-8384d08a5ec7" fill="black" transform="matrix(3.799873117233202,0,0,3.799873117233202,0.037995278607240834,78.6428138983498)"><path d="M9.58 7.21L9.58 7.21Q10.11 7.60 10.40 8.20L10.40 8.20L10.40 8.20Q10.70 8.81 10.70 9.42L10.70 9.42L10.70 9.42Q10.70 9.95 10.54 10.56L10.54 10.56L10.54 10.56Q10.37 11.17 10.12 11.75L10.12 11.75L7.21 18.42L5.40 13.57L3.61 18.42L-0.01 8.61L1.32 8.12L3.99 15.57L5.08 12.67L3.81 9.25L5.17 8.75L7.67 15.83L9.10 12.60L9.10 12.60Q9.34 12.01 9.48 11.53L9.48 11.53L9.48 11.53Q9.62 11.05 9.62 10.67L9.62 10.67L9.62 10.67Q9.62 9.41 8.43 8.44L8.43 8.44L9.58 7.21ZM13.99 10.96L14.24 11.26L14.24 11.26Q13.19 11.93 12.59 12.75L12.59 12.75L12.59 12.75Q11.98 13.58 11.98 14.70L11.98 14.70L11.98 14.70Q11.98 15.33 12.25 15.97L12.25 15.97L12.25 15.97Q12.52 16.60 13.05 17.02L13.05 17.02L13.05 17.02Q13.58 17.44 14.32 17.44L14.32 17.44L14.32 17.44Q14.92 17.44 15.39 17.16L15.39 17.16L15.39 17.16Q15.86 16.88 16.12 16.41L16.12 16.41L16.12 16.41Q16.38 15.93 16.38 15.36L16.38 15.36L16.38 15.36Q16.38 14.70 15.98 14.01L15.98 14.01L15.98 14.01Q15.58 13.33 14.94 12.85L14.94 12.85L14.94 12.85Q14.29 12.38 13.62 12.32L13.62 12.32L13.62 12.32Q13.90 12.04 14.29 11.73L14.29 11.73L14.29 11.73Q14.69 11.42 15.09 11.13L15.09 11.13L15.09 11.13Q16.06 11.45 16.62 12.36L16.62 12.36L16.62 12.36Q17.18 13.26 17.18 14.36L17.18 14.36L17.18 14.36Q17.18 15.34 16.78 16.25L16.78 16.25L16.78 16.25Q16.38 17.15 15.61 17.72L15.61 17.72L15.61 17.72Q14.84 18.28 13.79 18.28L13.79 18.28L13.79 18.28Q12.95 18.28 12.24 17.87L12.24 17.87L12.24 17.87Q11.54 17.46 11.13 16.74L11.13 16.74L11.13 16.74Q10.72 16.03 10.72 15.16L10.72 15.16L10.72 15.16Q10.72 13.64 11.63 12.52L11.63 12.52L11.63 12.52Q12.53 11.40 13.99 10.96L13.99 10.96ZM20.52 10.51L20.52 10.51Q21 10.51 21.22 10.68L21.22 10.68L21.22 10.68Q21.43 10.85 21.43 11.20L21.43 11.20L21.43 11.20Q21.43 11.58 21.29 11.87L21.29 11.87L21.29 11.87Q21.14 12.17 20.97 12.38L20.97 12.38L20.97 12.38Q20.80 12.59 20.75 12.67L20.75 12.67L20.75 12.67Q20.92 12.95 21.38 13.33L21.38 13.33L21.38 13.33Q21.76 13.65 21.98 13.90L21.98 13.90L21.98 13.90Q22.20 14.15 22.37 14.58L22.37 14.58L22.37 14.58Q22.53 15.01 22.53 15.62L22.53 15.62L22.53 15.62Q22.53 16.35 22.20 16.95L22.20 16.95L22.20 16.95Q21.87 17.56 21.29 17.91L21.29 17.91L21.29 17.91Q20.71 18.26 19.98 18.26L19.98 18.26L19.98 18.26Q19.53 18.26 19.00 18.07L19.00 18.07L19.00 18.07Q18.47 17.88 18.21 17.53L18.21 17.53L19.15 16.28L19.15 16.28Q19.49 16.72 19.86 17.02L19.86 17.02L19.86 17.02Q20.23 17.33 20.66 17.33L20.66 17.33L20.66 17.33Q21.27 17.33 21.69 16.93L21.69 16.93L21.69 16.93Q22.12 16.53 22.12 15.97L22.12 15.97L22.12 15.97Q22.12 15.53 21.75 15.09L21.75 15.09L21.75 15.09Q21.38 14.64 20.71 14.04L20.71 14.04L20.71 14.04Q20.62 13.97 20.38 13.76L20.38 13.76L20.38 13.76Q20.15 13.54 20.03 13.40L20.03 13.40L19.05 14.84L18.61 14.55L19.73 12.99L19.73 12.99Q19.53 12.45 19.53 11.91L19.53 11.91L19.53 11.91Q19.53 11.31 19.80 10.91L19.80 10.91L19.80 10.91Q20.06 10.51 20.52 10.51L20.52 10.51ZM20.52 11.06L20.52 11.06Q20.34 11.06 20.29 11.16L20.29 11.16L20.29 11.16Q20.24 11.26 20.24 11.45L20.24 11.45L20.24 11.45Q20.24 11.70 20.31 11.89L20.31 11.89L20.31 11.89Q20.38 12.07 20.41 12.14L20.41 12.14L20.41 12.14Q20.57 12.04 20.70 11.78L20.70 11.78L20.70 11.78Q20.83 11.52 20.83 11.34L20.83 11.34L20.83 11.34Q20.83 11.21 20.75 11.14L20.75 11.14L20.75 11.14Q20.68 11.06 20.52 11.06L20.52 11.06ZM31.61 8.08L31.61 8.08Q32.94 8.08 33.79 8.80L33.79 8.80L33.79 8.80Q34.64 9.52 34.64 10.96L34.64 10.96L34.64 10.96Q34.64 12.11 33.87 13.10L33.87 13.10L33.87 13.10Q33.10 14.08 31.90 14.67L31.90 14.67L31.90 14.67Q30.70 15.26 29.50 15.26L29.50 15.26L29.50 15.26Q29.37 15.26 29.34 15.23L29.34 15.23L29.41 14.85L29.41 14.85Q30.35 14.76 31.25 14.27L31.25 14.27L31.25 14.27Q32.14 13.78 32.71 12.99L32.71 12.99L32.71 12.99Q33.28 12.19 33.28 11.23L33.28 11.23L33.28 11.23Q33.28 10.18 32.64 9.55L32.64 9.55L32.64 9.55Q32.00 8.92 30.76 8.92L30.76 8.92L30.76 8.92Q29.79 8.92 28.72 9.37L28.72 9.37L28.72 9.37Q27.65 9.83 26.85 10.56L26.85 10.56L26.59 10.26L26.59 10.26Q27.61 9.31 28.97 8.69L28.97 8.69L28.97 8.69Q30.34 8.08 31.61 8.08L31.61 8.08ZM28.77 10.11L28.77 17.78L27.48 18.27L27.48 10.61L28.77 10.11ZM38.40 12.80L38.40 12.80Q37.77 13.45 37.32 14.51L37.32 14.51L37.32 14.51Q36.86 15.57 36.86 16.44L36.86 16.44L36.86 16.44Q36.86 17.19 37.19 17.70L37.19 17.70L37.19 17.70Q37.52 18.21 38.25 18.21L38.25 18.21L38.25 18.21Q38.84 18.21 39.38 17.91L39.38 17.91L39.38 17.91Q39.91 17.60 40.29 17.11L40.29 17.11L40.14 16.90L40.14 16.90Q39.70 17.19 39.28 17.19L39.28 17.19L39.28 17.19Q38.63 17.19 38.29 16.73L38.29 16.73L38.29 16.73Q37.95 16.27 37.95 15.61L37.95 15.61L37.95 15.61Q37.95 14.55 38.50 13.59L38.50 13.59L38.50 13.59Q39.05 12.64 39.89 11.75L39.89 11.75L39.66 11.55L39.66 11.55Q38.68 12.17 37.87 12.17L37.87 12.17L37.87 12.17Q37.39 12.17 37.00 11.74L37.00 11.74L37.00 11.74Q36.61 11.31 36.40 10.79L36.40 10.79L35.27 12.07L35.27 12.07Q35.36 12.35 35.80 12.71L35.80 12.71L34.86 14.67L35.38 14.91L36.29 12.91L36.29 12.91Q36.53 13.01 36.68 13.03L36.68 13.03L36.68 13.03Q36.83 13.06 37.10 13.06L37.10 13.06L37.10 13.06Q37.79 13.06 38.36 12.75L38.36 12.75L38.40 12.80ZM44.59 10.96L44.84 11.26L44.84 11.26Q43.79 11.93 43.19 12.75L43.19 12.75L43.19 12.75Q42.59 13.58 42.59 14.70L42.59 14.70L42.59 14.70Q42.59 15.33 42.85 15.97L42.85 15.97L42.85 15.97Q43.12 16.60 43.65 17.02L43.65 17.02L43.65 17.02Q44.18 17.44 44.93 17.44L44.93 17.44L44.93 17.44Q45.53 17.44 46.00 17.16L46.00 17.16L46.00 17.16Q46.47 16.88 46.72 16.41L46.72 16.41L46.72 16.41Q46.98 15.93 46.98 15.36L46.98 15.36L46.98 15.36Q46.98 14.70 46.58 14.01L46.58 14.01L46.58 14.01Q46.19 13.33 45.54 12.85L45.54 12.85L45.54 12.85Q44.90 12.38 44.23 12.32L44.23 12.32L44.23 12.32Q44.51 12.04 44.90 11.73L44.90 11.73L44.90 11.73Q45.29 11.42 45.70 11.13L45.70 11.13L45.70 11.13Q46.66 11.45 47.22 12.36L47.22 12.36L47.22 12.36Q47.78 13.26 47.78 14.36L47.78 14.36L47.78 14.36Q47.78 15.34 47.38 16.25L47.38 16.25L47.38 16.25Q46.98 17.15 46.21 17.72L46.21 17.72L46.21 17.72Q45.44 18.28 44.39 18.28L44.39 18.28L44.39 18.28Q43.55 18.28 42.85 17.87L42.85 17.87L42.85 17.87Q42.14 17.46 41.73 16.74L41.73 16.74L41.73 16.74Q41.33 16.03 41.33 15.16L41.33 15.16L41.33 15.16Q41.33 13.64 42.23 12.52L42.23 12.52L42.23 12.52Q43.13 11.40 44.59 10.96L44.59 10.96ZM49.57 6.93L50.12 9.84L50.61 9.67L51.13 6.41L49.57 6.93ZM51.03 11.14L49.78 11.66L49.78 18.26L49.78 18.26Q49.78 19.91 49.34 20.49L49.34 20.49L49.34 20.49Q48.89 21.07 48.17 21.07L48.17 21.07L48.17 21.07Q47.35 21.07 46.80 20.58L46.80 20.58L45.79 21.83L45.79 21.83Q46.35 22.20 46.98 22.20L46.98 22.20L46.98 22.20Q47.99 22.20 48.93 21.53L48.93 21.53L48.93 21.53Q49.87 20.85 50.45 19.73L50.45 19.73L50.45 19.73Q51.03 18.61 51.03 17.33L51.03 17.33L51.03 11.14ZM56.87 10.96L56.87 10.96Q57.62 10.96 58.13 11.37L58.13 11.37L58.13 11.37Q58.63 11.77 58.63 12.57L58.63 12.57L58.63 12.57Q58.63 13.22 57.94 14.01L57.94 14.01L57.94 14.01Q57.25 14.80 56.31 15.46L56.31 15.46L56.31 15.46Q55.38 16.11 54.73 16.38L54.73 16.38L54.73 16.38Q55.08 16.94 55.52 17.16L55.52 17.16L55.52 17.16Q55.97 17.37 56.57 17.37L56.57 17.37L56.57 17.37Q57.25 17.37 57.91 17.03L57.91 17.03L57.91 17.03Q58.58 16.69 59.01 16.14L59.01 16.14L59.18 16.44L59.18 16.44Q58.49 17.32 57.72 17.79L57.72 17.79L57.72 17.79Q56.95 18.26 55.83 18.26L55.83 18.26L55.83 18.26Q54.98 18.26 54.31 17.84L54.31 17.84L54.31 17.84Q53.63 17.42 53.26 16.71L53.26 16.71L53.26 16.71Q52.88 16.00 52.88 15.18L52.88 15.18L52.88 15.18Q52.88 14.14 53.44 13.16L53.44 13.16L53.44 13.16Q54.00 12.18 54.92 11.57L54.92 11.57L54.92 11.57Q55.85 10.96 56.87 10.96L56.87 10.96ZM56.14 11.84L56.14 11.84Q55.52 11.84 55.04 12.24L55.04 12.24L55.04 12.24Q54.56 12.63 54.28 13.24L54.28 13.24L54.28 13.24Q54.01 13.86 54.01 14.52L54.01 14.52L54.01 14.52Q54.01 15.39 54.42 16.00L54.42 16.00L54.42 16.00Q55.01 15.74 55.69 15.20L55.69 15.20L55.69 15.20Q56.38 14.66 56.85 14.03L56.85 14.03L56.85 14.03Q57.33 13.40 57.33 12.88L57.33 12.88L57.33 12.88Q57.33 11.84 56.14 11.84L56.14 11.84ZM64.12 11.00L64.12 11.00Q64.69 11.00 65.18 11.33L65.18 11.33L65.18 11.33Q65.67 11.65 65.95 12.35L65.95 12.35L64.81 12.94L64.81 12.94Q64.67 12.45 64.25 12.17L64.25 12.17L64.25 12.17Q63.84 11.89 63.38 11.89L63.38 11.89L63.38 11.89Q62.71 11.89 62.19 12.24L62.19 12.24L62.19 12.24Q61.67 12.59 61.39 13.13L61.39 13.13L61.39 13.13Q61.11 13.68 61.11 14.24L61.11 14.24L61.11 14.24Q61.11 15.22 61.43 15.93L61.43 15.93L61.43 15.93Q61.75 16.63 62.31 17.00L62.31 17.00L62.31 17.00Q62.87 17.37 63.57 17.37L63.57 17.37L63.57 17.37Q64.41 17.37 65.04 16.96L65.04 16.96L65.04 16.96Q65.67 16.55 66.23 15.90L66.23 15.90L66.47 16.13L66.47 16.13Q65.79 17.18 65.02 17.72L65.02 17.72L65.02 17.72Q64.26 18.26 63.15 18.26L63.15 18.26L63.15 18.26Q62.29 18.26 61.60 17.85L61.60 17.85L61.60 17.85Q60.91 17.44 60.52 16.70L60.52 16.70L60.52 16.70Q60.13 15.95 60.13 14.97L60.13 14.97L60.13 14.97Q60.13 13.87 60.58 12.97L60.58 12.97L60.58 12.97Q61.03 12.07 61.92 11.54L61.92 11.54L61.92 11.54Q62.82 11.00 64.12 11.00L64.12 11.00ZM69.54 7.36L69.54 11.09L71.48 11.09L71.06 11.98L69.54 11.98L69.54 16.91L69.54 16.91Q69.54 17.12 69.66 17.26L69.66 17.26L69.66 17.26Q69.79 17.39 70 17.39L70 17.39L70 17.39Q70.29 17.39 70.81 16.84L70.81 16.84L71.01 17.05L71.01 17.05Q70.74 17.58 70.37 17.84L70.37 17.84L70.37 17.84Q70 18.10 69.67 18.17L69.67 18.17L69.67 18.17Q69.34 18.23 69.34 18.17L69.34 18.17L69.34 18.17Q69.36 18.17 69.38 18.17L69.38 18.17L69.38 18.17Q69.41 18.16 69.47 18.16L69.47 18.16L69.47 18.16Q68.24 18.16 68.24 16.74L68.24 16.74L68.24 11.98L67.19 11.98L67.62 11.09L68.24 11.09L68.24 7.87L69.54 7.36Z"></path></g><!----><g data-v-423bf9ae="" id="2aa273db-2972-425a-8c92-138324e31305" transform="matrix(2.8125,0,0,2.8125,91,0)" stroke="none" fill="black"><path d="M15.965 16.258l.707-.707 10.39 10.39-.707.707z"></path><path d="M4.935 26.357L26.018 5.274l.707.707L5.642 27.065z"></path><path d="M31 1v4.194h-4.194V1H31m1-1h-6.194v6.194H32V0zM31 26.806V31h-4.194v-4.194H31m1-1h-6.194V32H32v-6.194zM5.194 26.806V31H1v-4.194h4.194m1-1H0V32h6.194v-6.194z"></path></g><!----></svg>